<svg xmlns="http://www.w3.org/2000/svg" height="215.427" width="215.427" xml:space="preserve"><defs><clipPath id="a" clipPathUnits="userSpaceOnUse"><path d="M1246.11 304.25h174.91v301.73h-174.91z"/></clipPath><clipPath id="b" clipPathUnits="userSpaceOnUse"><path d="M974.773 316.211h255.257v213.551H974.773z"/></clipPath><clipPath id="c" clipPathUnits="userSpaceOnUse"><path d="M705.984 332.238h228.34v215.16h-228.34z"/></clipPath><clipPath id="d" clipPathUnits="userSpaceOnUse"><path d="M409.852 372.75h259.289v129.969H409.852z"/></clipPath><clipPath id="e" clipPathUnits="userSpaceOnUse"><path d="m240.086 283.539 113.984.109-.3 314.032-113.985-.102z"/></clipPath></defs><path style="fill:#4b9022;fill-opacity:1;fill-rule:nonzero;stroke:none" d="M1615.75 807.879C1615.75 361.699 1254.05 0 807.871 0 361.695 0 0 361.699 0 807.879c0 446.171 361.695 807.871 807.871 807.871 446.179 0 807.879-361.7 807.879-807.871" transform="matrix(.13333 0 0 -.13333 0 215.427)"/><text style="font-variant:normal;font-weight:300;font-size:55.32229996px;font-family:Futura;-inkscape-font-specification:Futura-Light;writing-mode:lr-tb;fill:#fff;fill-opacity:1;fill-rule:nonzero;stroke:none" transform="matrix(1.33333 0 0 1.33333 21.674 114.785)"><tspan y="0" x="0 26.996599 55.044498 86.522888">REKO</tspan></text><g clip-path="url(#a)" transform="matrix(.13333 0 0 -.13333 0 215.427)"><path style="fill:#fff;fill-opacity:1;fill-rule:nonzero;stroke:none" d="M1260.51 401.371c-1.16-4.961 1.51-48.883 48.59-58.621.79-.16 1.56-.281 2.34-.422-.21-2.226-.15-4.488.17-6.707.68-4.75 2.36-9.301 4.21-13.742 1.31-3.141 2.73-6.367 2.7-9.77-.04-3.41-2-7.07-5.31-7.859 3.2.5 6.49 1.332 8.93 3.461 2.68 2.348 3.96 6.019 4.01 9.578.04 3.563-1.03 7.051-2.4 10.332-.79 1.891-1.69 3.758-1.97 5.801-.26 2.019.22 4.269 1.8 5.578 1.02.852 2.26 1.5 3.16 2.199 35.42 1.242 53.56 29.731 54.63 33.539 1.25 4.422 10.57 24.762-5.91 49.184-16.5 24.418-46.03 24.906-46.03 24.906-67.34-.308-67.76-42.488-68.92-47.457m102.85-15.851c.88 1.441 3.02 2.128 4.34 1.089l-.48.653c2.02-1.121 4-2.5 5.07-4.524 1.08-2.027.93-4.867-.89-6.289-1.42-1.109-3.56-1.039-5.13-.109-1.57.91-2.61 2.558-3.17 4.289-.52 1.601-.62 3.461.26 4.891m-7.98 35.558c1.37 1.293 3.05 2.692 4.92 2.391 1.6-.25 2.72-1.649 3.65-2.969 2.75-3.93 5.16-8.148 6.58-12.73 1.44-4.579 1.85-9.54.64-14.192-.31-1.199-.79-2.449-1.81-3.18-1.56-1.109-3.86-.488-5.21.864-1.36 1.34-2.01 3.226-2.63 5.039-.23.699-.47 1.398-.7 2.109-1.14 3.371-2.19 6.781-3.44 10.11-.1.269-.19.531-.27.789-.93 2.582-1.85 5.152-2.77 7.722-.24.68-.49 1.399-.34 2.098.17.793.79 1.391 1.38 1.949M1308.32 489.371c-2.09 2.231-4.38 4.258-6.5 6.461-2.6 2.68-4.96 5.609-7.16 8.648-3.25 4.5-6.25 9.79-5.47 15.27.57 4 3.14 7.488 6.29 10.02 3.15 2.531 6.87 4.218 10.55 5.89-3.51.641-6.42 3.231-8.25 6.289-1.84 3.071-2.73 6.582-3.55 10.051-1.07 4.512-1.97 9.52.29 13.57 1.21 2.168 3.19 3.789 5.25 5.192a46.487 46.487 0 0 0 16.22 6.988c-3.79 4.441-2.91 11.07-1.79 16.789.34 1.731.71 3.531 1.84 4.883.95 1.129 2.32 1.808 3.66 2.406 9.33 4.192 20.81 6.383 29.39.813 4.08-2.641 6.98-6.731 9.48-10.903 1.15-1.918 2.28-3.976 2.37-6.218.28-5.54-5.36-9.309-10.28-11.891 6.35 3.781 15.23 1.371 19.79-4.43 4.55-5.808 5.08-14.121 2.53-21.051-2.56-6.918-7.84-12.566-13.83-16.867 8.66-1.359 15.03-11.031 12.85-19.511-2.04-7.969-9.66-12.93-15.98-18.2-11.84-9.851-20.73-23.218-25.23-37.961-.3-.949-.59-1.949-1.26-2.699-2.27-2.57-6.88-1.058-7.65 1.828-1.01 3.821-.48 8.282-1.47 12.262-2.07 8.309-6.24 16.109-12.09 22.371"/><path style="fill:#fff;fill-opacity:1;fill-rule:nonzero;stroke:none" d="M1287.72 560.941c1.8 9.188 10.01 16.739 19.32 17.758a72.095 72.095 0 0 1-5.14 12.75c-1.65 3.192-3.65 6.36-6.69 8.262-1.7 1.07-3.64 1.668-5.57 2.199-8.61 2.309-18.59 2.719-25.65-2.711-5.42-4.16-8.14-11.301-7.74-18.129.41-6.82 3.69-13.281 8.34-18.3-7.71-.969-14.66-6.532-17.28-13.848-2.64-7.301-.83-16.024 4.49-21.692 4.85-5.14 11.86-7.519 17.84-11.289-5.03-1.671-9.15-5.921-10.64-11.019-1.5-5.102-.36-10.891 2.96-15.031 1.79-2.231 4.11-3.961 6.51-5.512 7.03-4.508 14.87-7.617 22.01-11.949 7.14-4.328 13.81-10.25 16.53-18.141.51-1.449 1.13-3.211 2.64-3.5.6-.117 1.24.051 1.83.211 3.15.871 6.81 2.23 7.62 5.398-2.65 11.59-5.74 23.961-14.6 31.883-2.64 2.36-5.7 4.231-8.23 6.699-4.05 3.95-6.51 9.211-8.89 14.34-1.75 3.789-3.55 7.809-3.12 11.961.49 4.688 3.69 8.348 7.23 11.168 1.36 1.082 4.7 2.379 5.58 3.801 1.22 1.969-.27 2.18-1.87 3.559-5.89 5.113-8.98 13.429-7.48 21.132M1370.82 535.148c3.89 5.473 7.24 11.524 8.24 18.153 1 6.64-.71 13.949-5.66 18.469-1.55 1.41-3.52 3.582-2.17 5.16.27.34.67.558 1.06.761 8.75 4.7 19.57 6.539 28.67 2.547 9.11-3.976 15.38-14.816 12.22-24.238-1.48-4.391-4.68-7.961-7.59-11.578 3.28 1.828 7.31-.723 9.77-3.563 3.57-4.121 6.13-9.488 5.59-14.918-.54-5.421-4.12-10.171-8.5-13.39-4.4-3.242-9.59-5.16-14.7-7.039-2.85-1.071-5.71-2.114-8.57-3.184 6.55-1.058 12.2-6.348 13.72-12.808.3-1.309.45-2.711.07-4-.31-1.051-.93-1.969-1.61-2.821-6.25-7.808-16.83-10.371-26.62-12.461-9.78-2.097-20.37-4.687-26.58-12.527-1.84-2.32-3.24-5.051-5.55-6.922-2.3-1.867-6.01-2.519-8.08-.398-2.61 2.66-.75 7.089 1.21 10.269 2.25 3.649 4.49 7.309 6.74 10.949 2.5 4.051 5.03 8.153 8.42 11.5 3.69 3.653 8.27 6.25 12.41 9.391a59.867 59.867 0 0 1 10.36 9.961c1.46 1.777 2.84 3.68 3.66 5.828 1.69 4.391.88 9.481-1.42 13.57-2.33 4.11-5.85 6.422-9.29 9.411 1.46 1.25 2.99 2.179 4.2 3.878"/></g><g clip-path="url(#b)" transform="matrix(.13333 0 0 -.13333 0 215.427)"><path style="fill:#fff;fill-opacity:1;fill-rule:nonzero;stroke:none" d="M1161.3 319.84c-.56 3.359 18.53 40.558 23.82 47.43 5.29 6.89 47.67 53.25 44.77 57.91-2.91 4.679-80.06-7.149-80.06-7.149s-13.12 34.367-61.84 81c-48.7 46.649-110.709 27.399-112.76 23.438-1.503-2.899-.515-46.668 22.844-82.629l-.031.019s8.797-45.277 15.787-48.48c4.51-2.07 11.94 8.633 16.64 16.441.85-.531 1.67-1.058 2.54-1.558 46.34-26.371 79.97-23.891 92.91-21.223 3.43-12.867 9.75-26.848 19.34-48.391 12.51-28.078 16.6-20.168 16.04-16.808m-147.97 179.551c-2.52 2.187-1.78 7.168 1.65 11.121 3.43 3.949 8.26 5.367 10.78 3.179 2.52-2.191 1.78-7.16-1.65-11.113-3.43-3.949-8.25-5.379-10.78-3.187m-12.74-46.309c.63 2.328 20.11 4.93 31.84 25.406 0 0 17.81 26.114 14.39 33.383-3.41 7.289 17.71-6.062.58-37.793-17.13-31.726-47.431-23.316-46.81-20.996m207.88-43.711s-8.69-6.793-14.65-8.051c-5.98-1.261-43.43-.269-44.66 1.508-1.23 1.801 49.17 12.5 59.31 6.543m-28.77-33.09c-2.37 2.071-30.43 14.981-35.05 21.52 0 0 44-5.621 44.29-10.903.3-5.269-6.86-12.699-9.24-10.617"/><path style="fill:#fff;fill-opacity:1;fill-rule:nonzero;stroke:none" d="M1093.58 506.078c7.64-7.367 13.96-15.988 20.24-24.566 1.26 6.379 6.24 11.976 12.43 13.976 3.04.981 6.98 1.731 7.8 4.84.86 3.274-2.65 5.75-5.64 7.192-5.85 2.789-11.7 5.582-17.55 8.378-2.53 1.204-5.05 2.411-7.64 3.473-4.31 1.758-8.76 3.117-13.21 4.469-5.88 1.781-11.82 3.582-17.98 3.879-10.37.543-4.51-5.199.64-7.489 7.84-3.48 14.75-8.21 20.91-14.152"/></g><g clip-path="url(#c)" transform="matrix(.13333 0 0 -.13333 0 215.427)"><path style="fill:#fff;fill-opacity:1;fill-rule:nonzero;stroke:none" d="M765.465 422.891c1.242.738 2.344 1.57 3.234 2.461 2.887 2.847 6.93 13.257 1.985 16.296 3.761-2.308 8.66-2.617 12.675-.816 2.633 1.18 4.844 3.188 6.489 5.559 2.136 3.078 3.347 7.058 2.191 10.629-1.156 3.562-5.23 6.242-8.769 5 3.429 2.32 5.382 7.121 3.523 10.832-1.852 3.707-7.988 4.617-10.164 1.089-1.902 2.7-4.488 5.161-7.727 5.778-3.238.64-7.086-1.219-7.695-4.457-.391 5.129-5.625 9.359-10.727 8.66-5.097-.703-9.007-6.184-8.003-11.231-6.219 3.079-13.829 5.86-19.797 2.329-5.867-3.489-6.782-12.981-1.688-17.52-6.25 1.18-13.043-3.129-14.644-9.281-1.602-6.16 2.238-13.231 8.269-15.239-2.738 1.02-5.633-2.378-4.871-5.199.758-2.82 3.742-4.133 6.317-4.672-1.301-3.597-1.618-7.769.152-11.3 1.758-3.5 5.832-5.938 9.66-5.079 4.746 1.059 7.277 6.34 7.895 11.161-.957-1.02-.981-2.68-.336-3.93.636-1.242 1.812-2.129 3.05-2.789 1.696-.891 3.774-1.434 5.504-.613 1.418.671 2.313 2.101 2.942 3.531a18.746 18.746 0 0 1 1.554 6.719c1.329-.539 2.668-1.09 4.079-1.34 4.347-.789 10.488.781 14.902 3.422"/><path style="fill:#fff;fill-opacity:1;fill-rule:nonzero;stroke:none" d="M756.586 486.23c2.687-.89 4.855-3.21 5.551-5.949 2.367 1.348 5.101 2.239 7.793 1.86 2.695-.379 5.281-2.289 5.863-4.95 3.281 3.2 9.215 2.75 12.289-.652 3.07-3.398 3.109-8.969.453-12.699 1.598.308 3.344-.34 4.352-1.621.953-1.199 1.25-2.848 2.324-3.938 1.137-1.16 2.871-1.449 4.477-1.672 2.511-.339 5.066-.687 7.574-.308 6.312.969 11.367 7.179 11.047 13.558 5.984 1.629 10.316 7.942 9.695 14.11-.617 6.172-6.121 11.492-12.313 11.902 1.672 1.859 1.161 4.758.411 7.149-.922 2.949-2.129 5.949-4.426 8.019-2.508 2.281-6.059 3.152-9.442 3.051-3.394-.11-6.683-1.09-9.918-2.121-1.914 3.41-5.57 5.781-9.457 6.133-3.89.347-7.918-1.332-10.402-4.332-.332-.399-.668-.84-1.156-1.008-.379-.121-.789-.051-1.176 0-4.344.578-9.336-1.172-11.066-5.192-1.379-3.199-.411-6.851-.36-10.332-3.297 1.012-7.14-.058-9.433-2.636-1.43-1.614-3.75-6.602-1.633-8.493 1.777-1.578 6.422.95 8.953.121"/><path style="fill:#fff;fill-opacity:1;fill-rule:nonzero;stroke:none" d="M781.922 522.41c4.402-.148 8.707-2.269 11.5-5.68 6.242 2.54 13.816 1.5 19.133-2.64 5.316-4.141 8.187-11.231 7.254-17.899 5.863-.019 10.828-5.492 11.339-11.339.512-5.84-2.75-11.582-7.394-15.161 4.387-3.742 10.473-5.39 16.144-4.39.934.168 1.903.418 2.571 1.09 1.258 1.257.918 3.328 1.09 5.097.304 3.153 2.66 5.992 5.687 6.883-2.766 2.988-2.91 8.051-.312 11.199 2.597 3.149 7.597 3.969 11.062 1.821-.488 2.64.567 5.629 2.91 6.941 2.336 1.297 5.793.316 6.692-2.203 1.074 3.242 2.625 6.699 5.73 8.141 4.035 1.839 8.645-.551 12.422-2.879 2.344 3.191 2.707 7.91.344 11.097-2.364 3.172-7.5 4.071-10.481 1.461.676 3.84-1.855 7.981-5.574 9.133-3.711 1.168-8.144-.801-9.777-4.332-.633 4.379-1.414 9.078-4.512 12.23-2.898 2.961-7.461 3.961-11.504 3.059-4.043-.898-7.562-3.5-10.172-6.719 1.403 6.16-1.328 12.961-6.402 16.7-5.086 3.742-12.184 4.39-17.988 1.91-5.813-2.469-10.204-7.86-11.789-13.969.503.848-.571 1.758-1.5 2.09-4.782 1.687-10.04.847-15.04-.012-2.976-.508-6.109-1.09-8.441-3.019-2.512-2.079-6.012-9.418-4.019-12.489 3.558 2.129 6.664 4.039 11.027 3.879"/><path style="fill:#fff;fill-opacity:1;fill-rule:nonzero;stroke:none" d="M862.43 492.77c.066 1.3.398 2.48 2.136 2.859 1.231.293 2.52-.07 3.723-.481 1.25-.418 2.664-1.007 3.934-.699-.164 1.93 1.515 4.242 3.007 5.379 2.696 2.07 6.563 1.793 9.719.524 3.145-1.274 5.879-3.383 8.934-4.864.5-.238 1.055-.457 1.594-.359.769.18 1.218.961 1.707 1.601 1.476 1.879 4.062 2.661 6.457 2.481 2.402-.18 4.648-1.191 6.757-2.352 3.192-1.738 6.29-3.898 8.172-7.007 1.875-3.114 2.278-7.332.176-10.293 3.828.64 7.344-2.098 10.176-4.77 3.058-2.867 6.262-6.719 5.187-10.777-.5-1.871-1.855-3.41-3.293-4.711a30.028 30.028 0 0 0-4.589-3.43c2.031-.723 4.015-1.801 5.324-3.512 1.316-1.718 1.844-4.14.918-6.089-.918-1.95-3.489-3.09-5.403-2.079 1.575-1.89 2.102-4.57 1.379-6.91-.722-2.34-2.695-4.261-5.05-4.91-2.735-.762-5.665.109-8.223 1.32a31.308 31.308 0 0 0-7.637 5.09c-6.472-4.679-15.371-5.531-22.832-2.672-7.449 2.86-13.367 9.219-16.199 16.692-.461 1.219-1.066 2.679-2.356 2.91-.496.098-1.003-.02-1.503-.129-5.379-1.113-11.629-.043-15.059 4.258-2.176 2.75-2.898 6.582-1.863 9.93 1.035 3.351 3.797 6.121 7.148 7.14-1.535 1.559-3.117 3.192-3.965 5.199-.851 2.02-.82 4.582.653 6.2 1.25 1.371 3.273 1.793 5.097 1.543 1.094-.172 3.469-1.723 4.446-1.293 1.582.679 1.23 2.55 1.328 4.211M857.984 386.621a7.116 7.116 0 0 0-.761 1.649c-.164.492-.274 1.011-.203 1.519.066.441.253.84.437 1.242.852 1.789 4.531 7.051 7.199 4.18-2.101 2.269-.304 6.461 2.703 7.18 3 .718 6.145-1.34 7.539-4.09 2.969 2.898 8.098 3.211 11.379.679 3.289-2.519 4.317-7.558 2.286-11.16 2.371 1.192 5.554.25 7.011-1.968 1.453-2.223 1.082-5.422-.742-7.352-1.836-1.93-4.922-2.469-7.355-1.398 1.925-.27 3.144-2.493 2.812-4.411-.32-1.921-1.797-3.461-3.457-4.492-1.445-.879-3.172-1.48-4.844-1.16-1.66.332-3.172 1.789-3.133 3.481-.917-1.469-3.351-1.411-4.472-.09-1.125 1.332-.977 3.422.027 4.832-.515-1.774-2.519-2.821-4.363-2.723-1.856.082-3.547 1.082-4.981 2.262-1.437 1.187-5.5 8.121-.546 7.879-2.649.129-5.157 1.691-6.536 3.941"/><path style="fill:#fff;fill-opacity:1;fill-rule:nonzero;stroke:none" d="M777.418 432.762a120.24 120.24 0 0 0 24.953-27.121c-.992 11.25-6.601 22.031-15.262 29.3-.652.547-1.339 1.098-1.644 1.899-.297.789.008 1.89.82 2.109.625.172 1.266-.199 1.914-.179 2.516.07 2.145 4.98 4.625 5.421.778.129 1.543-.293 2.227-.679 2.82-1.621 5.644-3.242 8.461-4.864a54.811 54.811 0 0 0-4.098 14.622c8.621-1.219 17.742 3.921 21.145 11.929.429 1.012 1.113 2.27 2.199 2.102.594-.09 1.012-.602 1.418-1.051 3.371-3.828 9.336-5.09 13.98-2.961.895.422 1.93.949 2.813.5.781-.391 1.035-1.359 1.367-2.168 2.031-4.93 8.5-5.68 13.531-7.449.516-.192 1.063-.422 1.387-.883.594-.867.059-2.051-.469-2.98a67.978 67.978 0 0 1-8.515-28.629c8.593 6.699 15.261 15.832 19.043 26.039.789-4.559 3.816-8.68 7.937-10.789 3.918-2.008 8.547-2.219 12.539-4.071-1.484-3.129-5.137-4.429-8.055-6.3-3.964-2.547-6.828-6.45-9.55-10.289-10.411-14.739-20.383-31.149-20.391-49.18a24.661 24.661 0 0 1 10.828 10.922c.813-3.512 3.789-6.41 7.305-7.133-7.735-6.777-13.934-15.289-18.035-24.731-1.086-2.488-2.063-5.109-3.887-7.128-2.02-2.231-4.883-3.5-7.746-4.43a47.734 47.734 0 0 0-22.973-1.641c-3.121.531-6.617 1.762-7.711 4.731-.867 2.359.121 4.98-.097 7.492-.125 1.476-.672 2.867-1.219 4.25a252.671 252.671 0 0 1-10.586 22.957c-2.906 5.551-6.031 11.012-9.902 15.941-2.063 2.61-4.317 5.059-6.571 7.512l-11.515 12.508c-1.852 2-3.704 4.012-5.563 6.031-1.465 1.578-3.762 2.981-1.539 4.301 1.27.738 4.273.5 5.848 1.098a18.322 18.322 0 0 1 4.992 2.91c3.086 2.539 5.367 6.121 5.996 10.082"/></g><g clip-path="url(#d)" transform="matrix(.13333 0 0 -.13333 0 215.427)"><path style="fill:#fff;fill-opacity:1;fill-rule:nonzero;stroke:none" d="M450.246 420.801c0-4.762-2.68-8.621-5.984-8.621-3.309 0-5.989 3.859-5.989 8.621 0 4.758 2.68 8.621 5.989 8.621 3.304 0 5.984-3.863 5.984-8.621M447.371 451.441c0-4.23-2.031-7.66-4.547-7.66-2.511 0-4.547 3.43-4.547 7.66 0 4.231 2.036 7.661 4.547 7.661 2.516 0 4.547-3.43 4.547-7.661M466.043 435.16c0-4.75-2.469-8.609-5.504-8.609-3.043 0-5.508 3.859-5.508 8.609 0 4.762 2.465 8.621 5.508 8.621 3.035 0 5.504-3.859 5.504-8.621M486.629 443.301c0-4.492-1.93-8.141-4.313-8.141-2.378 0-4.3 3.649-4.3 8.141 0 4.5 1.922 8.14 4.3 8.14 2.383 0 4.313-3.64 4.313-8.14M482.32 419.359c0-3.961-2.363-7.179-5.265-7.179-2.914 0-5.266 3.218-5.266 7.179 0 3.973 2.352 7.18 5.266 7.18 2.902 0 5.265-3.207 5.265-7.18M466.52 396.859c0-4.23-2.567-7.648-5.743-7.648-3.175 0-5.746 3.418-5.746 7.648 0 4.231 2.571 7.672 5.746 7.672 3.176 0 5.743-3.441 5.743-7.672"/><path style="fill:#fff;fill-opacity:1;fill-rule:nonzero;stroke:none" d="M582.375 501.23c-19.629 1.43-96.227 3.352-127.344-2.39 0 0-36.383-12.461-42.605-47.399-6.227-34.953-1.914-73.25 21.301-76.601 23.218-3.352 115.136-2.871 137.636 2.871 22.5 5.738 58.403 27.777 57.446 65.598-.957 37.812-26.805 56.48-46.434 57.921m-85.27-78.589c-3.308-10.743-5.765-22.34-14.984-29.801-1.312-1.07-2.719-2-4.16-2.891-7.602-4.66-14.445-7.359-23.398-6.84-3.2.2-6.422.379-9.508 1.25C433.219 387.648 426.113 400 423.527 412c-3.332 15.469-1.101 32.078 6.27 46.059 9.312 17.691 33.894 35.742 52.922 20.351 5.922-4.801 9.832-11.66 12.672-18.73 5.047-12.539 5.668-24.211 1.714-37.039m77.122 49.379a1533.138 1533.138 0 0 1-56.657-1.141c-3.254-.129-7.086.012-8.922 2.691-.765 1.129-1.019 2.52-1.414 3.821-.996 3.281-6.863 7.218-7.254 9.429-.691 3.969 6.317 4.192 9.625 4.489 15.5 1.421 31.106.043 46.61-1.329 12.594-1.121 25.523-2.332 36.863-7.91 5.703-2.808 11.195-7.148 12.871-13.269-10.207 3.109-21.054 3.23-31.722 3.219M633.141 463.332c-.965 2.25-2.153 4.578-1.887 7.02.262 2.437 2.769 4.796 5.039 3.859 3.324-1.402 2.566-7.832 6.145-8.301 3.335 4.789 6.671 9.578 10.003 14.371 1.512 2.168 3.743 4.617 6.286 3.91 2.714-.761 3.16-4.691 1.746-7.132-1.422-2.438-3.95-4.008-5.785-6.149-2.094-2.461-3.243-5.711-3.141-8.93 6.344 1.911 13.844-1.25 16.906-7.14.402-.781.738-1.629.68-2.5-.192-2.852-3.863-3.668-6.594-4.5-3.57-1.078-7.066-4.43-6.117-8.051 1.047-3.91 6.848-6.258 5.832-10.18-.848-3.25-5.699-3.359-8.426-1.398-1.742 1.258-3.125 3.027-5.07 3.93-1.949.89-4.84.359-5.363-1.711-.336-1.309.402-2.629.66-3.961.687-3.5-2.68-7.168-6.231-6.778-9.094 1.008-2.289 13.27-1.547 17.918 1.379 8.641.336 17.68-3.136 25.723"/></g><g clip-path="url(#e)" transform="matrix(.13333 0 0 -.13333 0 215.427)"><path style="fill:#fff;fill-opacity:1;fill-rule:nonzero;stroke:none" d="M313.406 304.762c.907 3.808 1.817 7.609 2.719 11.418 7.742 32.55 15.715 65.011 22.836 97.781 1.652 7.609 3.305 15.219 4.269 22.937 1.098 8.774 2.836 20.68-.035 29.204-2.73 8.097-10.648 14.867-18.484 17.707-9.172 3.312-19.273 2.222-28.957 1.089-7.09-.82-14.27-1.668-20.914-4.257-6.656-2.59-12.824-7.161-15.824-13.629-3.336-7.211-2.344-15.582-1.274-23.453 1.02-7.579 2.043-15.161 3.067-22.727 1.046-7.773 2.097-15.531 3.382-23.254 4.321-25.918 11.305-51.308 18.274-76.648 3.308-12.032 6.711-24.258 13.469-34.739.566-.871 1.207-1.781 2.171-2.179 8.391-3.473 14.172 16.008 15.301 20.75m-28.277 58.449c-1.074 1.348-1.441 3.109-1.777 4.801-2.129 10.699-4.258 21.41-6.391 32.109-.91 4.57-1.816 9.149-2.414 13.758-.609 4.723-.883 9.473-1.16 14.211-.465 8.039-.938 16.09-1.403 24.121-.207 3.488-.406 7.027.332 10.43.739 3.418 2.539 6.75 5.52 8.57.406.25.863.48 1.348.461 1.66-.094 1.75-2.5 1.355-4.113a92.306 92.306 0 0 1-2.418-29.989c.426-5.05 1.262-10.05 2.102-15.05 3.379-20.192 6.66-40.469 9.382-60.641-1.617-.668-3.402-.039-4.476 1.332M294.809 490.93c.039.371.043.769.007 1.242-.222 3.109-1.441 6.226-2.011 9.297-.203 1.109-.41 2.222-.817 3.269-.414 1.071-1.027 2.051-1.246 3.184-.344 1.777-.015 3.629-.429 5.41 3.093.949 5.863 2.297 7.531 5.246 1.636 2.91 1.719 6.641.215 9.621 5.039 1.063 8.757 6.403 8.011 11.481-.746 5.09-5.851 9.14-10.98 8.699 4.144.621 6.461 6.062 4.504 9.769-1.953 3.711-7.082 5.071-10.918 3.383 3.406 5.809 1.133 14.219-4.754 17.508-2.082 1.172-4.582 1.731-6.899 1.152-2.312-.582-4.367-2.453-4.785-4.8-.617.64-1.23 1.3-1.847 1.937-1.969 2.094-4.211 4.313-7.078 4.543-3.079.25-5.926-2.043-7.211-4.84-1.286-2.812-1.293-6.031-1.043-9.101-1.692 1.679-4.715 1.422-6.485-.18-1.765-1.602-2.39-4.18-2.129-6.539.262-2.371 1.285-4.582 2.395-6.699-4.574-.012-8.578-4.153-8.965-8.711-.387-4.563 2.484-9.071 6.559-11.16-2.707-3.469-3.075-8.602-.883-12.43 2.191-3.813 6.801-6.09 11.164-5.512-2.121-1.789-1.485-5.519.672-7.277 2.156-1.762 5.191-1.973 7.957-1.633 2.668.32 5.515 1.332 8.187.973-.199.027 1.715-11.492 1.946-12.492.519-2.282.847-9.469 3.492-10.34.933-.309 1.957-.098 2.922.09 2.578.519 5.152 1.039 7.726 1.57 2.961.601 4.922.871 5.192 3.34"/><path style="fill:#fff;fill-opacity:1;fill-rule:nonzero;stroke:none" d="M316.879 487.852a147.207 147.207 0 0 1 6.605 25.929c3.621-1.941 8.418-1.39 11.52 1.321 3.094 2.687 4.289 7.367 2.859 11.226 3.629-1.027 7.688-2.008 11.012-.226 4.004 2.136 5.172 7.636 3.773 11.957-1.394 4.32-4.703 7.722-7.96 10.882 3.007-.98 6.57.528 8.148 3.27 1.582 2.75 1.18 6.43-.766 8.93-1.945 2.5-5.254 3.789-8.41 3.519 3.418 2.731 5.469 7.09 5.395 11.461-.075 4.367-2.278 8.649-5.782 11.27-3.496 2.609-9.222 3.097-11.695-.493l-.926 5.563c-.203 1.211-.433 2.488-1.246 3.418-.902 1.031-2.343 1.402-3.707 1.59-3.578.492-7.367.031-10.48-1.789-3.125-1.828-5.485-5.098-5.731-8.7-3.152 1.442-7.097.961-9.816-1.199-2.711-2.152-4.078-5.89-3.391-9.293-2.144.473-3.695-2.168-3.691-4.347 0-2.2.769-4.481 0-6.532 3.894-.109 7.652-2.48 9.43-5.949 1.777-3.469 1.507-7.89-.68-11.129 4.375-.992 7.914-4.941 8.426-9.39.519-4.461-2.024-9.11-6.059-11.082-.602-.289-1.266-.547-1.637-1.118-.371-.55-.359-1.25-.382-1.91a15.098 15.098 0 0 0-2.883-8.269c.968-.84 2.476-1.024 3.613-.41-1.039-6.211-2.082-12.422-3.125-18.633-.316-1.867-1.254-5.27-.359-7.078 1.007-2.039 1.632-1.321 3.906-1.09 4.762.469 9.535-.012 14.039-1.699"/></g><path style="fill:#fff;fill-opacity:1;fill-rule:nonzero;stroke:none" d="M213.891 366.25c397.297 19.98 795.289 19.711 1192.569-.66 8.07-.418 20.28 11.332 7.23 12.012-398.92 20.449-798.545 20.578-1197.475.519-10.055-.512-15.641-12.539-2.324-11.871" transform="matrix(.13333 0 0 -.13333 0 215.427)"/><path style="fill:#4b9022;fill-opacity:1;fill-rule:nonzero;stroke:none" d="M1406.46 365.59c21.11 0-2.07-22.711-8.23-42.91-41.73-136.711-290.65-241.72-591.343-241.72-300.782 0-549.723 105.009-591.449 241.72-6.165 20.199 4.234 44.64 25.339 44.64l50.637 2.571 49.649 1.839 91.156 3.469 142.969 3.75 31.875.633 89.531.938 86.875.781h70.465l62.031-.781 111.095-2.188 99.84-1.883 62.81-1.867 111.1-4.062 53.12-2.5 52.53-2.43" transform="matrix(.13333 0 0 -.13333 0 215.427)"/></svg>